<?xml version="1.0" encoding="UTF-8" standalone="no"?>
<!-- Created with Inkscape (http://www.inkscape.org/) -->

<svg
   xmlns:dc="http://purl.org/dc/elements/1.1/"
   xmlns:cc="http://creativecommons.org/ns#"
   xmlns:rdf="http://www.w3.org/1999/02/22-rdf-syntax-ns#"
   xmlns:svg="http://www.w3.org/2000/svg"
   xmlns="http://www.w3.org/2000/svg"
   xmlns:sodipodi="http://sodipodi.sourceforge.net/DTD/sodipodi-0.dtd"
   xmlns:inkscape="http://www.inkscape.org/namespaces/inkscape"
   width="1000"
   height="1000"
   viewBox="0 0 1000 1000"
   id="svg2"
   version="1.1"
   inkscape:version="0.91 r13725"
   sodipodi:docname="boo.svg">
  <defs
     id="defs4" />
  <sodipodi:namedview
     id="base"
     pagecolor="#ffffff"
     bordercolor="#666666"
     borderopacity="1.0"
     inkscape:pageopacity="0.0"
     inkscape:pageshadow="2"
     inkscape:zoom="0.71"
     inkscape:cx="375"
     inkscape:cy="520"
     inkscape:document-units="px"
     inkscape:current-layer="layer1"
     showgrid="false"
     inkscape:window-width="1920"
     inkscape:window-height="1005"
     inkscape:window-x="-9"
     inkscape:window-y="-9"
     inkscape:window-maximized="1"
     units="px" />
  <metadata
     id="metadata7">
    <rdf:RDF>
      <cc:Work
         rdf:about="">
        <dc:format>image/svg+xml</dc:format>
        <dc:type
           rdf:resource="http://purl.org/dc/dcmitype/StillImage" />
        <dc:title></dc:title>
      </cc:Work>
    </rdf:RDF>
  </metadata>
  <g
     inkscape:label="Layer 1"
     inkscape:groupmode="layer"
     id="layer1"
     transform="translate(0,-52.362161)">
    <g
       id="g3428"
       transform="matrix(1.3987583,0,0,1.3987583,-168.92043,-190.5793)">
      <path
         style="fill-opacity:1"
         d="m 440.72198,818.33576 c -15.15738,-1.94187 -48.13195,-9.25934 -61.43842,-13.63394 -8.44801,-2.77734 -24.31117,-9.39905 -35.25145,-14.71491 -33.49594,-16.27558 -58.14678,-34.64232 -87.95319,-65.53177 -28.41577,-29.44828 -47.71585,-59.18697 -61.38811,-94.59035 -5.47279,-14.17142 -7.63527,-17.88081 -12.27896,-21.06272 -17.88161,-12.25267 -34.33556,-37.52609 -39.11448,-60.08017 -3.01769,-14.24201 -3.00313,-20.98109 0.0745,-34.5126 3.73146,-16.40596 10.1547,-26.20877 25.67039,-39.17678 13.45843,-11.24857 13.51693,-11.33126 16.54339,-23.38738 4.19485,-16.71052 14.27339,-42.02628 23.5215,-59.08243 12.15156,-22.41094 27.35482,-42.67153 48.30093,-64.36814 50.593,-52.40573 105.88283,-81.22218 175.14381,-91.28304 21.32951,-3.09833 70.17502,-3.09833 91.50453,0 64.8903,9.42597 118.37499,35.78197 165.60226,81.60489 50.32695,48.83044 78.5966,102.48374 87.68594,166.42021 3.73682,26.28562 2.8711,74.71704 -1.71877,96.15331 -1.16142,5.42428 1.09428,6.0141 28.36711,7.41752 11.07097,0.56972 19.48522,1.47814 18.69833,2.01875 -0.78689,0.54062 -2.42298,3.55649 -3.63575,6.70196 -12.64913,32.80687 -32.28193,55.95778 -58.64236,69.15072 -8.40438,4.20625 -16.49273,7.67314 -17.9741,7.70422 -1.55233,0.0325 -7.1262,6.67804 -13.15643,15.68579 -11.46953,17.13279 -40.16396,48.02411 -58.14733,62.59918 -44.01276,35.67125 -86.49794,54.61951 -142.99385,63.77479 -15.97241,2.58836 -27.19323,3.25663 -51.47129,3.06542 -17.0754,-0.13448 -33.25209,-0.52711 -35.94821,-0.87253 z m 87.4195,-20.04282 c 46.36848,-8.0239 84.16696,-23.86925 119.68609,-50.17312 25.97237,-19.23398 52.71182,-46.87955 69.54344,-71.90008 5.88815,-8.75284 7.60293,-10.20286 13.18007,-11.14512 14.29258,-2.4147 47.01828,-24.67117 65.89633,-44.81548 10.24908,-10.93656 23.82008,-27.97007 22.24078,-27.91532 -0.28053,0.01 -3.98725,1.07286 -8.23717,2.3625 -8.12242,2.46477 -42.49725,3.73593 -47.32266,1.74996 -1.51882,-0.62509 -3.81729,-2.7479 -5.10774,-4.71735 -2.04836,-3.12619 -2.01646,-5.02775 0.25122,-14.97738 1.97514,-8.6661 2.59962,-20.59653 2.60653,-49.79578 0.01,-43.20363 -1.9311,-56.31774 -13.07733,-88.34004 -24.60905,-70.69996 -82.96149,-132.81685 -154.29918,-164.25338 -17.23583,-7.59535 -30.41281,-11.77137 -54.73932,-17.34787 -14.87335,-3.4095 -20.30029,-3.74549 -60.45834,-3.74309 -48.40191,0.003 -59.35147,1.46877 -92.9259,12.44038 -66.78359,21.82385 -132.23906,78.36258 -163.40426,141.14431 -8.89372,17.91621 -18.18765,41.66724 -16.30468,41.66724 0.54531,0 4.7575,-2.14338 9.36042,-4.76306 13.18466,-7.50384 34.65275,-15.82907 53.0973,-20.5909 14.98876,-3.86965 19.33768,-4.30735 37.58221,-3.78255 18.35423,0.52795 21.62422,1.07635 29.61909,4.96729 13.11674,6.38366 17.1959,10.62192 22.11422,22.97677 2.42216,6.08443 9.55319,20.05048 15.84674,31.03565 16.80824,29.33817 47.49655,90.4234 46.67124,92.89932 -0.87834,2.63507 -19.36007,-29.7958 -40.78162,-71.56169 -15.96254,-31.12239 -16.07242,-31.28278 -16.07242,-23.46004 0,6.50267 1.83273,11.39875 10.50684,28.06862 15.9605,30.67282 25.59561,53.68922 22.47539,53.68922 -2.16606,0 -13.22469,-17.32867 -25.40919,-39.8157 l -10.29529,-19.00041 -1.86177,6.06625 c -1.74143,5.67409 -1.42902,6.86208 4.83302,18.37847 3.68214,6.77174 7.75217,13.52411 9.04449,15.00527 2.23586,2.56253 4.70462,14.46409 3.0003,14.46409 -0.44515,0 -2.7876,-2.98933 -5.20546,-6.64295 -3.78313,-5.7167 -12.86189,-12.65565 -14.4486,-11.04315 -0.28628,0.29096 1.26345,4.90844 3.44387,10.26109 2.18041,5.35264 3.69868,10.49977 3.37394,11.43807 -0.72931,2.1072 -10.23297,-12.5696 -12.88093,-19.89243 -1.06657,-2.94952 -2.34298,-5.33275 -2.83646,-5.29607 -0.49349,0.0366 -3.97241,5.01077 -7.73093,11.05357 -13.18052,21.19104 -37.25315,44.89488 -64.58608,63.59657 -18.41002,12.5965 -27.52466,16.38318 -33.20495,13.79508 -4.23656,-1.93031 -5.21842,-6.45264 -2.50266,-11.52706 0.84383,-1.57672 6.17479,-5.70699 11.84656,-9.17837 50.28249,-30.77517 84.51298,-77.40963 84.6356,-115.30468 0.0322,-9.97706 -4.03996,-23.15165 -8.96549,-29.00531 -2.20385,-2.61914 -7.88434,-6.48655 -12.62328,-8.59425 -7.40528,-3.2936 -11.14245,-3.81862 -26.59036,-3.73561 -15.70365,0.0845 -20.03817,0.76954 -34.3142,5.42396 -16.95294,5.52717 -45.261,19.10902 -52.83728,25.35066 -2.39418,1.97243 -7.47809,5.31604 -11.29759,7.43025 -3.81949,2.1142 -6.94454,4.30725 -6.94454,4.87345 0,0.56618 -3.19631,3.42433 -7.10294,6.35144 -6.22773,4.66624 -7.66603,7.0166 -11.6729,19.075 -3.9946,12.02143 -4.45642,15.40966 -3.66811,26.91106 1.75891,25.66184 20.41345,54.67539 42.62248,66.29106 6.49687,3.39795 7.76143,4.76374 7.02348,7.58569 -1.16439,4.45267 8.20533,27.17521 19.03227,46.15521 27.7153,48.58588 76.20909,93.48816 126.5832,117.20829 27.18998,12.8032 66.73178,23.23252 100.06209,26.3918 15.15163,1.43618 55.28519,-0.63208 73.53042,-3.78935 z M 350.03446,694.79887 c -2.87238,-1.44544 -4.23837,-3.63915 -4.6016,-7.3899 -0.45494,-4.69776 0.81233,-6.66081 10.62106,-16.45227 8.48067,-8.46576 13.46336,-11.98553 20.88674,-14.75447 27.79119,-10.36617 60.92627,-8.64917 86.98974,4.50763 11.30295,5.7057 14.00443,8.48078 13.27372,13.63532 -0.81593,5.7557 -6.39981,5.51403 -21.42631,-0.92737 -36.34244,-15.57887 -73.80095,-9.27866 -91.96672,15.46809 -6.30561,8.58995 -7.46671,9.08829 -13.77663,5.91297 z M 586.96582,576.18951 c -15.46949,-5.82573 -36.91163,-16.58303 -50.65429,-25.41276 -5.84158,-3.75326 -11.59434,-7.41414 -12.78393,-8.13531 -1.30022,-0.78825 -0.76596,1.42695 1.33951,5.55398 6.03332,11.82631 2.36361,8.97617 -7.06306,-5.48561 -9.61586,-14.75205 -11.56542,-16.4343 -21.12372,-18.22744 l -6.07386,-1.13946 6.51245,14.09614 c 11.31102,24.48267 7.91318,23.98041 -7.29084,-1.07773 -6.77014,-11.15806 -8.25184,-12.66357 -12.46326,-12.66357 -2.62881,0 -4.77966,0.27724 -4.77966,0.6161 0,0.33885 4.10715,9.15742 9.12699,19.59681 5.01984,10.43939 8.87697,19.73076 8.57141,20.64745 -0.30558,0.91672 -5.71789,-7.39234 -12.02737,-18.46458 l -11.47178,-20.13134 -5.26968,1.36551 c -2.8983,0.75104 -5.26966,1.63515 -5.26966,1.9647 0,0.32956 2.20591,5.783 4.90203,12.11879 2.69611,6.33578 4.90203,12.29521 4.90203,13.24318 0,4.24705 -3.53889,0.85958 -10.07911,-9.64782 -3.8929,-6.25426 -7.8133,-11.378 -8.712,-11.3861 -0.89871,-0.008 -2.983,1.00758 -4.63176,2.25706 -2.85743,2.16542 -2.68532,2.93853 3.67652,16.51431 3.67085,7.83341 6.67427,14.55182 6.67427,14.9298 0,2.4613 -4.18932,-2.96415 -10.09006,-13.06732 -3.77938,-6.47099 -7.05707,-12.02948 -7.28374,-12.3522 -0.22669,-0.32272 -2.6604,1.01413 -5.40824,2.97078 -5.92142,4.21641 -6.29842,3.21741 -1.38818,-3.67842 l 3.60796,-5.06688 -10.40557,-19.6955 c -14.25647,-26.98444 -26.37085,-53.19268 -24.58754,-53.19268 1.80916,0 9.56013,13.10866 25.85836,43.73235 6.82238,12.81897 13.10721,23.07293 13.96629,22.78657 0.85908,-0.28636 2.52405,-1.96963 3.69994,-3.74062 1.78794,-2.69278 1.71897,-4.01573 -0.42127,-8.08049 -7.61935,-14.47065 -17.06352,-37.5827 -16.5918,-40.60394 0.43977,-2.81664 1.72169,-1.66466 6.78459,6.09687 3.4333,5.26332 9.17474,15.0061 12.75874,21.65062 3.58402,6.64452 6.84602,12.08095 7.24894,12.08095 0.4029,0 2.51598,-1.16854 4.69573,-2.59677 l 3.96318,-2.59678 -14.78272,-29.53085 c -16.0037,-31.96998 -18.31627,-37.17748 -16.50281,-37.16168 1.46012,0.0131 3.63333,3.67552 22.29209,37.57188 13.72215,24.92827 15.16022,26.92408 19.07238,26.46944 4.21527,-0.48988 4.17063,-0.6122 -11.84656,-32.46597 -8.84277,-17.58583 -16.07777,-32.68339 -16.07777,-33.55014 0,-6.57723 15.22375,16.57572 33.3847,50.77294 4.35732,8.20483 8.96594,14.91788 10.2414,14.91788 2.54301,0 1.9974,-1.29644 -3.79985,-9.02888 -8.01505,-10.69054 -13.96618,-26.4834 -15.23147,-40.4206 -0.67209,-7.40293 -0.72715,-14.19518 -0.12239,-15.09389 0.60476,-0.8987 2.00576,-4.80119 3.11333,-8.67219 2.32354,-8.12098 11.58378,-18.16549 21.33193,-23.13863 10.95042,-5.58649 26.96033,-8.41295 48.16778,-8.50373 33.68126,-0.14412 61.50898,5.89124 99.73232,21.63049 34.21916,14.09046 44.73612,22.11488 37.91892,28.93208 -3.23849,3.23849 -3.52917,3.14916 -36.0446,-11.07646 -28.09547,-12.29188 -52.00145,-18.05315 -79.40939,-19.13743 -33.38855,-1.32089 -49.52362,3.98273 -60.87126,20.00842 -4.27635,6.03927 -4.55867,7.40788 -4.03623,19.56557 0.78556,18.28098 8.2681,32.39299 27.32441,51.53365 19.93638,20.02463 40.6583,32.92486 72.64142,45.2222 17.24272,6.62973 20.83883,9.32028 20.16682,15.08853 -0.44178,3.79206 -1.22682,4.20355 -8.65589,4.5371 -5.68998,0.25546 -11.89017,-1.03416 -20.42512,-4.24838 z M 413.86083,533.89008 c -13.07644,-20.04047 -39.31623,-67.73275 -39.31623,-71.45943 0,-6.44167 37.34579,55.70924 44.0142,73.24849 2.37945,6.25842 -0.0508,5.33291 -4.69797,-1.78906 z m -58.32984,-12.63397 c -0.51532,-1.34289 -1.6072,-2.02738 -2.42639,-1.5211 -1.71339,1.05894 -0.33795,3.96274 1.87704,3.96274 0.81746,0 1.06467,-1.09874 0.54935,-2.44164 z"
         id="path3436"
         inkscape:connector-curvature="0" />
      <path
         style="fill-opacity:1"
         d="m 430.51758,816.13549 c -66.6929,-10.09346 -119.6639,-37.19594 -168.87031,-86.402 -20.81072,-20.81057 -34.54023,-38.39532 -48.50891,-62.13011 -8.37663,-14.23313 -23.18597,-47.30177 -23.22182,-51.85344 -0.008,-1.04684 -3.65672,-4.57661 -8.10769,-7.84393 -16.99025,-12.47198 -30.63686,-32.3924 -36.97873,-53.97909 -5.83807,-19.87186 -2.26887,-46.99571 8.21413,-62.42286 3.70357,-5.45028 15.54348,-16.33049 25.43775,-23.37582 2.68592,-1.91256 4.8835,-4.448 4.8835,-5.63432 0,-4.75224 8.75235,-32.02325 14.96887,-46.64079 25.42169,-59.77655 77.0113,-114.94442 138.62802,-148.24324 81.68917,-44.14636 200.99444,-44.14636 282.68362,0 67.72639,36.6006 121.16907,97.46578 144.54346,164.61865 15.51931,44.58585 19.61515,97.90198 11.3142,147.27903 l -1.00406,5.97251 9.15633,1.90085 c 5.03599,1.04547 15.69852,2.03435 23.69451,2.19753 7.99601,0.16323 14.07098,0.66432 13.49994,1.11367 -0.57102,0.44935 -1.26369,2.28762 -1.53927,4.08503 -0.27557,1.79741 -3.7644,9.92181 -7.75293,18.05423 -13.52102,27.5686 -33.40938,46.56718 -59.95107,57.26892 -11.81315,4.76312 -13.46989,6.01218 -18.93953,14.27915 -34.03097,51.43535 -87.8691,94.51117 -145.50536,116.41871 -44.42408,16.88557 -106.35081,22.94891 -156.64465,15.33732 z m 84.05963,-15.5208 c 72.84876,-9.43946 128.96271,-38.9038 179.46739,-94.23481 6.80855,-7.45919 16.46107,-19.54679 21.45005,-26.86132 8.34371,-12.23307 9.6081,-13.38507 15.77319,-14.3709 12.706,-2.03177 38.1314,-18.48445 58.07298,-37.57881 12.76229,-12.22009 30.45805,-33.34964 29.0822,-34.7255 -0.32824,-0.32825 -4.92945,0.53501 -10.22489,1.91833 -6.00066,1.56756 -15.97563,2.44427 -26.47601,2.32701 -14.90303,-0.16641 -17.33559,-0.60762 -21.07256,-3.82203 l -4.22466,-3.63389 2.97532,-18.66993 c 4.19373,-26.31546 3.88492,-66.06591 -0.71496,-92.03433 -6.57882,-37.14028 -22.36528,-75.11491 -43.88229,-105.55962 -15.89576,-22.49111 -52.34712,-58.41487 -74.37721,-73.30065 -18.58381,-12.5571 -50.34692,-28.68543 -68.16602,-34.61261 -56.6518,-18.84412 -131.25929,-18.84412 -187.91108,0 -17.81293,5.92513 -49.57885,22.05342 -68.16602,34.60946 -12.67491,8.56217 -24.2685,18.56906 -41.31261,35.65853 -25.65387,25.72213 -38.02567,41.77545 -50.58101,65.63256 -7.28954,13.85129 -19.68139,43.33086 -19.68139,46.82104 0,0.77061 8.63982,-2.84496 19.19961,-8.03461 10.55978,-5.18964 27.28795,-11.84026 37.17371,-14.77912 16.51467,-4.90953 19.83155,-5.34672 40.85023,-5.38437 21.68618,-0.0389 23.38611,0.19737 32.68019,4.54103 10.54116,4.92648 20.38056,13.27403 20.4969,17.38917 0.0943,3.33582 7.4695,17.94335 25.1501,49.81299 16.39998,29.56132 40.98784,79.05703 39.84212,80.20277 -1.08933,1.08931 -20.51169,-33.78486 -40.05439,-71.92047 l -16.74708,-32.68018 -0.0462,8.5967 c -0.0407,7.54865 1.61711,11.93121 13.59746,35.9482 14.52232,29.1129 20.1099,42.34585 18.54234,43.9134 -1.35389,1.35391 -13.90689,-18.43662 -25.05784,-39.50516 l -9.39851,-17.75747 -2.05917,4.82727 c -1.13254,2.655 -2.09233,5.73634 -2.13287,6.84742 -0.0895,2.45276 13.77101,27.7734 17.60712,32.16509 1.50937,1.72797 1.82517,2.6043 0.70179,1.94743 -2.48554,-1.45337 -2.5964,-0.18755 -0.35101,4.008 2.99548,5.59712 -0.7233,3.16859 -5.77652,-3.77232 -5.24427,-7.20332 -17.27615,-14.10198 -14.03604,-8.04778 3.74702,7.00139 8.16511,19.88273 6.81945,19.88273 -0.79743,0 -4.2794,-5.51163 -7.7377,-12.24806 -3.45832,-6.73644 -6.65549,-12.24172 -7.10484,-12.23398 -0.44935,0.008 -4.46669,5.70322 -8.92743,12.65658 -18.92782,29.50452 -71.83304,73.36517 -90.67812,75.17593 -7.07207,0.67954 -8.01849,0.377 -9.0571,-2.89536 -1.89001,-5.95489 1.76175,-10.05227 18.481,-20.73624 37.06992,-23.68846 65.00722,-56.64007 74.92904,-88.37763 5.51544,-17.64258 4.95053,-34.38408 -1.59259,-47.1974 -3.63485,-7.11812 -5.78351,-9.16112 -13.74809,-13.07207 -8.72423,-4.28398 -10.86463,-4.63291 -28.23105,-4.60234 -16.03234,0.0283 -20.95014,0.71338 -33.49719,4.66677 -8.08835,2.54853 -19.34798,6.73648 -25.0214,9.30658 -11.28089,5.11031 -30.23168,16.14823 -31.04785,18.08388 -0.28211,0.66904 -3.59098,2.72846 -7.35304,4.57646 -3.76206,1.84802 -10.94046,7.22182 -15.95199,11.94178 -7.78094,7.32828 -9.65995,10.31015 -12.86409,20.41471 -3.08928,9.74229 -3.62912,14.40778 -3.05545,26.40643 0.60716,12.69952 1.46154,16.11561 6.64427,26.56628 8.12541,16.38437 19.87388,30.48555 30.70049,36.84843 11.65545,6.85001 13.08755,8.18209 11.95876,11.12368 -1.97611,5.14966 15.31999,41.8044 29.79263,63.13796 13.84697,20.41129 31.57236,40.01565 53.34248,58.997 59.36403,51.75944 142.2015,76.16531 222.98749,65.69736 z M 347.70016,692.701 c -3.71908,-3.71907 -3.18047,-7.53416 2.09108,-14.8113 20.94587,-28.91495 66.81495,-36.66629 110.17016,-18.61748 13.76445,5.73016 18.03814,9.45368 17.2486,15.02814 -0.80336,5.67203 -6.52547,5.62927 -18.48378,-0.13808 -37.10154,-17.89374 -79.11617,-10.6542 -96.41309,16.61296 -3.27678,5.16558 -10.43043,6.10833 -14.61297,1.92579 z M 581.6208,573.58433 c -19.79041,-8.05066 -34.76447,-15.98143 -49.8028,-26.37722 -6.52492,-4.5106 -10.21255,-6.22937 -10.21255,-4.75997 0,1.26492 0.6629,2.70956 1.4731,3.21029 0.81023,0.50074 2.2877,3.24712 3.28328,6.10306 2.28876,6.56553 2.04359,6.29425 -7.65698,-8.47293 -4.42109,-6.73022 -9.45663,-13.48853 -11.1901,-15.01847 -2.95835,-2.611 -16.95548,-6.01223 -16.95548,-4.12011 0,0.47792 3.0429,7.21049 6.762,14.9613 3.71909,7.75081 6.33759,14.51678 5.81887,15.0355 -0.94174,0.94175 -14.58232,-19.3444 -17.89266,-26.60981 -1.32723,-2.91295 -3.06428,-3.83822 -7.20557,-3.83822 -3.00121,0 -5.45675,0.35432 -5.45675,0.78736 0,0.43306 3.01773,7.23463 6.70604,15.11459 14.75646,31.52667 14.46236,33.15372 -1.0391,5.74867 -5.97307,-10.55978 -11.11299,-19.45672 -11.42206,-19.77096 -0.30908,-0.31425 -3.12217,0.27359 -6.25135,1.30631 l -5.68939,1.87768 4.52585,10.13174 c 9.07493,20.31547 7.6584,23.11966 -3.05446,6.04673 -3.9474,-6.29094 -8.0213,-11.43807 -9.0531,-11.43807 -1.03177,0 -3.28893,1.03319 -5.01588,2.29595 -3.07678,2.2498 -3.07862,2.42227 -0.0922,8.57855 5.91897,12.20134 10.7277,23.4397 10.02952,23.4397 -0.38873,0 -4.23201,-5.88243 -8.54059,-13.07207 -4.30859,-7.18964 -8.52953,-13.07208 -9.37987,-13.07208 -0.85032,0 -3.34766,1.65444 -5.54965,3.67652 -3.59651,3.30269 -3.82707,3.34423 -2.26755,0.4085 0.95482,-1.79741 2.7469,-4.62006 3.98241,-6.27256 2.00275,-2.67872 0.29288,-6.87753 -15.76666,-38.71676 -9.90718,-19.64171 -17.61606,-36.10919 -17.13082,-36.59441 1.018,-1.01802 14.8688,22.64753 28.85781,49.30669 l 9.64321,18.37725 3.80608,-4.05138 3.80608,-4.05138 -9.12895,-19.2968 c -5.02092,-10.61324 -9.59531,-21.4717 -10.16528,-24.12993 l -1.03636,-4.83312 4.7736,5.38013 c 2.62547,2.95906 8.5968,12.6909 13.26959,21.62632 l 8.49602,16.24624 4.39898,-2.74919 c 2.41943,-1.51205 4.66802,-2.93442 4.99688,-3.16081 0.32885,-0.22639 -6.56419,-14.81846 -15.31784,-32.42682 -8.75367,-17.60835 -15.52832,-32.40262 -15.05478,-32.87615 0.92429,-0.92431 19.78836,31.75604 29.59339,51.26797 5.6286,11.20087 6.21602,11.80935 10.42603,10.79971 2.45376,-0.58847 4.64949,-1.2159 4.87943,-1.3943 0.22992,-0.1784 -3.34781,-7.24417 -7.95053,-15.70172 -4.60273,-8.45755 -10.12181,-19.23772 -12.26463,-23.95592 -2.14283,-4.7182 -5.74794,-12.67455 -8.01139,-17.68078 -2.26344,-5.00623 -3.37593,-8.64523 -2.47216,-8.08668 2.99122,1.84867 10.85308,14.4225 25.30632,40.47355 10.98516,19.80006 15.02711,25.73564 17.52514,25.73564 2.96618,0 2.83309,-0.52976 -1.53935,-6.12753 -7.5102,-9.61482 -12.99209,-20.05304 -15.6611,-29.82067 -2.62587,-9.60977 -4.44812,-27.77816 -2.78607,-27.77816 0.55177,0 2.00995,-3.40959 3.24041,-7.57687 4.40355,-14.91395 17.11214,-24.99598 38.24374,-30.33971 11.73771,-2.96823 16.41562,-3.25273 39.47098,-2.40049 14.38533,0.53174 31.30199,2.12708 37.59258,3.54521 30.22608,6.81403 82.22013,28.22516 90.48637,37.26224 2.24322,2.45239 3.47255,5.31563 2.91081,6.77952 -1.60786,4.19001 -10.37014,2.95218 -23.73112,-3.35246 -42.6958,-20.14683 -78.88596,-28.13436 -113.14795,-24.97286 -14.3267,1.32199 -27.31796,5.71433 -34.19941,11.56279 -11.07971,9.41652 -14.62788,21.87187 -10.65184,37.39182 3.80175,14.83975 9.92925,24.93804 24.45345,40.30001 19.88224,21.02908 44.97219,36.62415 80.75015,50.19154 12.96765,4.91747 17.45274,9.8488 13.39951,14.73264 -3.6342,4.37893 -14.43518,2.8142 -33.16334,-4.80435 z M 408.83117,524.98981 c -11.15409,-17.55155 -34.97499,-61.60666 -33.89506,-62.68658 0.45881,-0.45881 3.40286,3.05682 6.54231,7.81252 13.20293,20.00005 38.21308,66.1701 36.67647,67.7067 -0.39296,0.39297 -4.58863,-5.38174 -9.32372,-12.83264 z m -52.57818,-3.78741 c -1.23487,-2.71025 -2.43444,-3.57635 -3.49053,-2.52026 -1.05611,1.05611 -0.89028,2.4752 0.48255,4.12935 3.26611,3.93543 5.08974,2.9599 3.00798,-1.60909 z"
         id="path3434"
         inkscape:connector-curvature="0" />
      <path
         style="fill-opacity:1"
         d="m 449.70903,818.50573 c -2.24676,-0.39745 -12.14074,-1.89568 -21.98661,-3.32941 C 357.41538,804.9385 291.8958,767.71593 244.26513,710.95176 c -22.27482,-26.54617 -36.32249,-49.91235 -48.5366,-80.7333 -6.35825,-16.04434 -7.1816,-17.25208 -17.28123,-25.34945 -27.95124,-22.40985 -42.40361,-63.30971 -33.34137,-94.35527 4.81405,-16.49202 11.73846,-25.56667 30.32049,-39.73592 6.41326,-4.89028 7.89915,-7.1166 9.62559,-14.42224 18.93155,-80.11152 84.39126,-157.20771 165.40456,-194.80779 31.19025,-14.47609 63.9266,-22.73989 101.52789,-25.6292 94.7931,-7.28397 177.43384,22.70601 242.3321,87.9413 51.10126,51.36665 78.22946,109.32954 84.16121,179.82124 1.85221,22.0113 0.75342,49.15378 -3.07152,75.87371 -0.83587,5.83915 -0.67286,6.06972 5.43199,7.68311 3.46155,0.91483 13.64677,2.28047 22.63382,3.03476 l 16.3401,1.37145 -11.98522,2.84309 c -12.61853,2.99333 -39.56322,3.50006 -44.75916,0.84179 -5.62016,-2.87531 -6.33474,-7.02735 -3.75524,-21.81935 3.68972,-21.15843 4.77121,-51.34332 2.60431,-72.68807 -3.65351,-35.98855 -11.04151,-61.64959 -27.05048,-93.95554 -26.55393,-53.58554 -79.43748,-104.7283 -134.77311,-130.33669 -81.37818,-37.66045 -186.00351,-33.79466 -262.50046,9.6991 -42.3853,24.09896 -84.95017,65.97001 -109.91433,108.12271 -7.75041,13.08678 -19.58616,40.37897 -22.37789,51.60143 l -1.18719,4.77235 10.45967,-5.82609 c 14.48016,-8.0655 27.71851,-13.41912 48.36792,-19.56006 15.87907,-4.72228 19.77736,-5.25131 38.8902,-5.2776 18.12117,-0.025 22.56254,0.49916 30.22918,3.56719 13.73566,5.49672 20.18384,11.68625 24.60069,23.61397 2.0933,5.65288 8.82674,19.10163 14.96323,29.88609 11.97683,21.04844 47.0575,89.54112 47.00967,91.78324 -0.0592,2.77422 -14.14792,-22.75237 -34.64955,-62.77957 -11.62282,-22.69231 -21.25895,-41.2588 -21.41364,-41.25889 -0.15474,-8e-5 0.15654,5.33088 0.69171,11.84657 0.87292,10.62873 2.26052,14.36665 13.49654,36.35686 12.13927,23.75797 19.80156,41.43805 18.51588,42.72375 -1.06989,1.06987 -11.4815,-15.64529 -23.30416,-37.41324 -11.112,-20.45951 -11.35057,-20.75295 -13.28403,-16.34009 -1.08284,2.47144 -2.00197,6.04614 -2.04251,7.94377 -0.0685,3.20226 10.64418,24.42447 14.94475,29.60632 1.04403,1.25797 1.9779,4.10738 2.07529,6.33201 l 0.17706,4.04478 -2.88002,-3.74257 c -1.58403,-2.05841 -2.89638,-4.27909 -2.91637,-4.93487 -0.0446,-1.46358 -13.15769,-8.29014 -14.10493,-7.34291 -0.37389,0.37391 1.19912,4.92843 3.49559,10.12117 5.99422,13.55399 3.67992,13.12325 -3.23175,-0.6015 -3.21443,-6.38302 -6.43789,-11.60551 -7.16323,-11.60551 -0.72534,0 -5.66777,6.43391 -10.98319,14.29758 -16.7902,24.83957 -43.25692,49.06614 -73.33926,67.13185 -12.01546,7.21577 -20.19601,8.69414 -23.83647,4.30767 -3.74121,-4.50789 0.87919,-9.99427 17.53604,-20.8227 39.09389,-25.41452 66.99932,-58.8485 76.47246,-91.62297 4.00567,-13.85849 2.90695,-33.60748 -2.46852,-44.37084 -3.44671,-6.90139 -5.60271,-8.93125 -13.88437,-13.07208 -9.25939,-4.62968 -10.8934,-4.90202 -29.41217,-4.90202 -16.90795,0 -21.567,0.62298 -33.83313,4.52391 -15.47193,4.92046 -47.43243,20.27049 -52.92308,25.41798 -1.88195,1.76432 -5.92613,4.48526 -8.98705,6.04654 -3.06093,1.56128 -10.0013,6.70857 -15.42304,11.43843 -8.64785,7.54427 -10.29991,9.97471 -13.46063,19.80267 -7.34895,22.85095 -6.34999,35.13667 4.67925,57.54785 7.83914,15.92899 24.6305,34.33777 34.57069,37.90071 5.18523,1.85859 6.12753,2.93201 6.12753,6.98013 0,5.52224 10.08357,29.86831 18.58719,44.87742 15.37833,27.1432 36.04205,52.3323 60.59635,73.86701 42.64449,37.40025 83.35112,57.12823 140.59073,68.13565 11.34198,2.18111 23.11633,2.81073 51.47129,2.75236 33.30652,-0.0686 38.70728,-0.4828 57.40912,-4.40326 52.23606,-10.95023 92.02287,-30.71544 132.18728,-65.66775 16.66379,-14.50134 38.16364,-38.74692 49.07298,-55.34004 5.90439,-8.98058 7.89056,-10.83734 11.59269,-10.83734 5.56895,0 25.02984,-9.96433 39.17606,-20.05887 14.17196,-10.11291 33.39989,-28.88409 43.05624,-42.03348 9.06168,-12.33962 8.47138,-8.50685 -1.76165,11.43806 -14.36595,28.00027 -37.14123,48.1405 -64.42195,56.9685 -4.53732,1.46827 -7.96565,4.99794 -16.23681,16.71678 -38.71654,54.85485 -92.32958,95.25506 -152.6145,115.00293 -29.49624,9.66224 -57.54566,14.14253 -92.55743,14.78403 -16.62605,0.30463 -32.06743,0.22868 -34.3142,-0.16878 z M 357.35987,522.01031 c -1.40941,-2.7255 -3.26655,-4.52036 -4.12698,-3.98859 -2.40523,1.48651 -1.86454,4.27093 1.2951,6.66942 4.62336,3.50964 5.56979,2.6137 2.83188,-2.68083 z m -9.52317,170.27024 c -3.74248,-4.1354 -3.44403,-5.96885 2.3402,-14.37595 15.94497,-23.17522 54.38264,-33.74709 90.79548,-24.97232 13.16145,3.17165 34.395,13.72152 35.66393,17.71959 1.20216,3.78764 -1.44724,8.27677 -4.88477,8.27677 -1.13712,0 -6.7457,-2.17756 -12.4635,-4.83904 -37.38148,-17.39996 -76.64936,-11.54954 -95.34858,14.20575 -5.51194,7.59182 -11.49809,9.07331 -16.10276,3.9852 z M 592.68485,577.45839 c -15.60443,-5.2846 -44.5803,-19.78808 -59.23284,-29.64824 -7.41431,-4.98931 -13.48057,-8.74266 -13.48057,-8.34075 0,0.4019 1.12184,2.90012 2.49297,5.55162 3.85576,7.45621 1.68236,5.70391 -4.09801,-3.30402 -7.53586,-11.74361 -15.24838,-18.01925 -22.14496,-18.01925 -3.1142,0 -5.66217,0.32691 -5.66217,0.72648 0,0.39956 2.58319,6.39492 5.74042,13.32301 3.15723,6.9281 5.42769,12.90928 5.04544,13.29152 -0.38222,0.38223 -4.54973,-5.61312 -9.26112,-13.32302 -8.37101,-13.69869 -8.70973,-14.01799 -14.87004,-14.01799 l -6.30389,0 5.55055,11.02956 c 6.19552,12.31117 10.95663,23.28464 10.10262,23.28464 -0.30868,0 -4.7494,-7.39689 -9.86824,-16.43752 -9.22613,-16.29467 -9.35188,-16.42807 -14.46997,-15.35094 -2.83963,0.59762 -5.72859,1.6115 -6.41991,2.25308 -0.69133,0.64158 1.00152,6.14747 3.76188,12.23532 2.76037,6.08784 4.75587,11.85774 4.43446,12.82199 -0.32143,0.96424 -3.76894,-3.33234 -7.66115,-9.54796 -3.89221,-6.21561 -7.2812,-11.54452 -7.53109,-11.84201 -0.44048,-0.52442 -4.17371,1.35389 -8.62936,4.34171 -1.72116,1.15413 -0.77781,4.24039 4.51176,14.76081 3.67833,7.31585 6.34446,13.30155 5.92472,13.30155 -0.41975,0 -3.84509,-5.33095 -7.6119,-11.84657 -3.7668,-6.51561 -7.111,-12.15583 -7.43156,-12.53384 -0.32056,-0.37802 -2.54682,1.09259 -4.94724,3.26801 l -4.36442,3.9553 3.43395,-5.71903 3.43394,-5.71903 -16.96612,-33.49719 c -9.33135,-18.42346 -16.98509,-34.2325 -17.00827,-35.1312 -0.0611,-2.3693 11.63744,17.90088 24.82045,43.00648 l 11.42851,21.76437 4.53723,-4.34695 4.53724,-4.34694 -9.46395,-19.86844 c -5.20519,-10.92764 -9.8813,-21.70669 -10.39139,-23.95345 l -0.92741,-4.08503 3.24619,4.08503 c 1.7854,2.24676 7.71566,12.01286 13.17838,21.70245 l 9.93219,17.61743 4.87723,-3.08805 c 2.68249,-1.69842 4.81487,-3.56184 4.73864,-4.14094 -0.0761,-0.57911 -5.71812,-12.19335 -12.53752,-25.80944 -21.3457,-42.62029 -20.41398,-44.11465 2.05772,-3.3003 13.93879,25.31639 15.31394,27.22428 19.39827,26.91319 2.41778,-0.18415 4.67146,-0.61031 5.00818,-0.94702 0.3367,-0.33672 -6.46908,-14.73219 -15.12398,-31.98996 -8.65491,-17.25777 -15.33995,-31.774 -14.85565,-32.25829 1.17575,-1.17577 14.31111,20.3268 27.36997,44.80462 8.68012,16.27019 11.24747,19.85058 14.25284,19.87666 3.42841,0.0297 3.20169,-0.64586 -3.50286,-10.43885 -13.72499,-20.04742 -18.19146,-39.25523 -13.31621,-57.2658 7.28245,-26.90361 32.48863,-38.43311 79.3124,-36.27812 12.14263,0.55883 28.70327,2.41167 36.8014,4.1174 30.29937,6.38201 83.40551,28.12401 90.39337,37.00761 8.75304,11.1277 -1.769,11.61348 -24.25516,1.11982 -35.48437,-16.55952 -65.10993,-23.91108 -96.38518,-23.91784 -31.46987,-0.007 -47.51178,6.66948 -56.69498,23.59524 -15.10765,27.84527 19.81446,77.10728 73.85208,104.17761 7.18964,3.60168 18.71278,8.54851 25.60696,10.99297 14.82275,5.2557 20.54938,10.21539 17.77679,15.396 -2.35995,4.40963 -9.10537,4.40735 -22.14163,-0.008 z M 408.45334,523.35283 c -13.67116,-22.12596 -33.30283,-58.47942 -31.58021,-58.47942 2.30202,0 41.13465,68.19412 39.66787,69.66091 -0.40076,0.40076 -4.04021,-4.63091 -8.08766,-11.18149 z"
         id="path3432"
         inkscape:connector-curvature="0" />
      <path
         style="fill-opacity:1"
         d="m 448.07502,817.8955 c -75.75818,-8.29232 -136.21622,-37.51547 -189.38793,-91.54303 -26.67607,-27.10545 -47.36308,-58.54854 -61.62612,-93.66824 -8.18229,-20.14714 -8.82079,-21.15054 -17.34231,-27.25266 -23.04516,-16.50227 -38.45975,-49.42959 -36.73299,-78.4658 1.46329,-24.60575 7.99913,-35.88494 32.68357,-56.40346 7.37969,-6.13423 8.06022,-7.39018 11.91251,-21.98487 12.02997,-45.57627 38.19955,-88.2494 77.71923,-126.73202 45.67018,-44.47172 88.9762,-67.88376 150.09386,-81.14355 15.58859,-3.38202 21.33977,-3.71962 62.90936,-3.69282 41.28841,0.0266 47.4262,0.38978 62.90936,3.72232 45.44214,9.78078 82.08488,26.14155 118.47354,52.89775 16.88054,12.41208 55.55089,52.04068 68.24461,69.93571 13.08402,18.44524 30.27834,52.2239 37.01324,72.71342 10.10417,30.73982 15.98099,74.1695 14.04055,103.75959 -1.03503,15.78324 -3.65912,37.78521 -5.10391,42.79418 -1.08269,3.75368 7.16923,5.92228 27.95646,7.34687 l 16.3401,1.11984 -7.35304,2.31865 c -10.43672,3.29103 -41.8618,4.0166 -47.50789,1.09688 -6.19542,-3.20377 -6.6205,-5.55047 -3.60589,-19.90599 1.95413,-9.30558 2.69813,-21.90507 2.77682,-47.0255 0.0923,-29.46736 -0.41594,-36.90557 -3.59833,-52.66046 -6.15867,-30.48947 -18.21202,-62.08744 -32.57558,-85.39723 -38.90423,-63.13543 -103.55456,-112.17842 -171.28763,-129.93681 -23.59683,-6.18666 -47.02478,-8.90628 -76.72241,-8.90628 -29.69763,0 -53.12559,2.71962 -76.72241,8.90628 -86.96383,22.80034 -166.24363,95.79575 -194.60366,179.17771 -2.20248,6.47556 -4.00451,11.95695 -4.00451,12.18087 0,0.22393 6.80156,-3.16158 15.11458,-7.52331 30.46277,-15.98343 56.68683,-23.35981 83.74298,-23.55543 30.12713,-0.21783 46.65545,7.7361 54.05764,26.01419 4.98976,12.32109 7.45992,27.24858 6.38873,38.60781 -0.89414,9.48182 -6.48561,28.08469 -9.96435,33.1515 -1.92602,2.80525 -1.36098,3.86529 5.43228,10.19148 4.17003,3.88332 7.16167,7.48078 6.64808,7.99437 -1.88406,1.88406 -12.44108,-3.9587 -13.56795,-7.50914 -1.0207,-3.21594 -2.13084,-2.12125 -9.377,9.24639 -18.13463,28.44929 -43.29811,53.06378 -74.01921,72.40431 -10.92987,6.88093 -15.58596,8.88509 -20.87871,8.98705 -6.48313,0.12484 -6.83605,-0.11798 -7.313,-5.03316 -0.5569,-5.7392 -1.83883,-4.55771 21.74326,-20.03977 18.74483,-12.30631 37.22543,-29.40029 49.73898,-46.00705 35.55079,-47.17944 33.88035,-95.26069 -3.63251,-104.55719 -13.57746,-3.36478 -40.34432,-1.10434 -57.54454,4.8596 -17.84439,6.18729 -43.0916,18.49656 -48.81251,23.79851 -2.30311,2.13444 -5.66992,4.35132 -7.48179,4.92639 -1.81187,0.57507 -8.63713,5.50658 -15.16725,10.95894 -11.49558,9.59829 -12.02133,10.36106 -16.54227,23.99989 -3.94357,11.89696 -4.53863,15.87491 -3.82834,25.59197 1.83558,25.11113 21.64264,56.44922 42.40338,67.08925 6.62168,3.39364 7.76154,4.68985 7.76154,8.82604 0,2.66651 2.79164,11.32347 6.20365,19.2377 33.83998,78.49251 108.29556,141.54946 191.21733,161.94327 25.22839,6.20467 38.20478,7.54588 73.00758,7.54588 34.8028,0 47.77918,-1.34121 73.00757,-7.54588 62.08969,-15.27036 119.51594,-54.11867 160.07527,-108.28942 5.45697,-7.28828 10.65587,-14.81909 11.55308,-16.73511 1.17992,-2.51971 3.55643,-3.70066 8.58844,-4.26784 9.10753,-1.02655 33.73406,-15.54792 50.07069,-29.52486 11.20925,-9.59017 23.48712,-22.788 33.7518,-36.28075 3.57474,-4.69893 3.5574,-4.52061 -0.47937,4.92873 -7.30405,17.09749 -14.29993,27.4094 -27.73971,40.88824 -13.22801,13.26648 -23.5004,19.93768 -38.91073,25.26986 -7.66775,2.65314 -9.40995,4.26024 -18.2796,16.86221 -38.42866,54.59926 -94.56577,96.99051 -153.65441,116.03027 -37.87575,12.20445 -92.00728,18.22662 -128.21221,14.26371 z M 348.40045,692.00071 c -1.79741,-1.79741 -3.26802,-3.92303 -3.26802,-4.72361 0,-3.63972 11.55114,-17.65413 18.49565,-22.43982 13.87981,-9.56506 24.14896,-12.47693 46.86473,-13.28882 23.5314,-0.84103 34.38768,1.26327 53.40686,10.352 12.08043,5.77291 15.62943,10.14797 11.88843,14.65558 -2.68837,3.23929 -3.57077,3.09231 -16.01073,-2.66688 -17.11716,-7.92457 -28.0111,-10.1057 -46.73489,-9.35699 -22.04228,0.88141 -33.13133,5.73699 -46.55281,20.38416 -5.21734,5.69382 -10.68649,10.3524 -12.15365,10.3524 -1.46716,0 -4.13816,-1.47061 -5.93557,-3.26802 z M 589.44483,575.88355 c -28.54291,-10.60312 -59.07446,-28.12956 -78.29995,-44.94755 -5.38485,-4.71054 -9.80676,-7.23825 -12.66237,-7.23825 -7.02318,0 -9.48382,-1.62027 -13.0366,-8.58429 l -3.34014,-6.54721 4.1438,1.04001 c 3.88365,0.97474 3.63724,0.3047 -3.9246,-10.67215 -14.31645,-20.78194 -18.41225,-38.83699 -13.36,-58.89346 4.84742,-19.24338 21.09246,-30.20861 50.57708,-34.13898 38.10984,-5.08013 90.5253,6.04786 136.86917,29.05782 17.2337,8.55662 20.42512,11.10007 20.42512,16.2781 0,5.65807 -6.62982,5.01487 -21.28822,-2.06531 -19.22414,-9.28545 -39.4317,-16.69905 -58.42298,-21.43376 -15.03976,-3.74954 -20.973,-4.3697 -42.0225,-4.39223 -21.83628,-0.0234 -25.54973,0.3869 -34.03962,3.76085 -29.66441,11.78889 -35.58801,37.95853 -15.60335,68.93348 17.0336,26.40097 51.32276,51.43688 90.53891,66.1061 15.00012,5.61096 18.7454,8.18224 18.7454,12.86941 0,2.61836 -1.18054,4.17316 -3.67652,4.84205 -5.76823,1.54583 -7.73534,1.18424 -21.62263,-3.97463 z M 428.19044,544.12287 c 3.50245,-6.35522 4.76741,-7.70614 5.74089,-6.131 0.534,0.86401 -0.94449,3.33225 -3.28553,5.48497 -3.5792,3.29129 -3.96986,3.39409 -2.45536,0.64603 z m 9.21542,-9.0649 c -1.19554,-1.93441 3.40872,-9.72621 5.74731,-9.72621 0.84637,0 2.31237,1.44534 3.25779,3.21187 1.45823,2.72471 0.98534,3.59123 -3.1178,5.71304 -3.2008,1.6552 -5.19206,1.92622 -5.8873,0.8013 z m 14.73651,-11.3944 c -2.40125,-4.64348 -2.33959,-4.83239 2.37157,-7.26863 6.31003,-3.26306 6.12925,-3.31342 9.1627,2.55263 2.99169,5.78531 3.20854,5.34133 -3.75673,7.6912 -4.99095,1.6838 -5.46132,1.50386 -7.77754,-2.9752 z m 16.12221,-5.48874 c -3.13596,-6.57619 -3.03649,-6.88233 2.68992,-8.27913 3.49448,-0.85238 4.61762,-0.0487 7.80699,5.5862 2.55286,4.51036 3.06712,6.58887 1.63401,6.60414 -1.15021,0.0131 -3.71995,0.45895 -5.71052,0.99262 -2.96363,0.79452 -4.12664,-0.0938 -6.4204,-4.90383 z"
         id="path3430"
         inkscape:connector-curvature="0" />
    </g>
  </g>
</svg>
